<mxfile host="app.diagrams.net" agent="Mozilla/5.0 (Windows NT 10.0; Win64; x64) AppleWebKit/537.36 (KHTML, like Gecko) Chrome/131.0.0.0 Safari/537.36" version="25.0.3">
  <diagram name="Page-1" id="OHLUjushL3GZ2f9-1G4F">
    <mxGraphModel dx="1434" dy="746" grid="1" gridSize="10" guides="1" tooltips="1" connect="1" arrows="1" fold="1" page="1" pageScale="1" pageWidth="850" pageHeight="1100" math="0" shadow="0">
      <root>
        <mxCell id="0" />
        <mxCell id="1" parent="0" />
        <mxCell id="GR2DG_vjGnoU9E7qpDiR-8" style="edgeStyle=orthogonalEdgeStyle;rounded=0;orthogonalLoop=1;jettySize=auto;html=1;entryX=0.5;entryY=0;entryDx=0;entryDy=0;" edge="1" parent="1" source="GR2DG_vjGnoU9E7qpDiR-1" target="GR2DG_vjGnoU9E7qpDiR-6">
          <mxGeometry relative="1" as="geometry" />
        </mxCell>
        <mxCell id="GR2DG_vjGnoU9E7qpDiR-1" value="&lt;font style=&quot;font-size: 24px;&quot;&gt;start&lt;/font&gt;" style="strokeWidth=2;html=1;shape=mxgraph.flowchart.start_1;whiteSpace=wrap;" vertex="1" parent="1">
          <mxGeometry x="375" y="20" width="100" height="60" as="geometry" />
        </mxCell>
        <mxCell id="GR2DG_vjGnoU9E7qpDiR-2" value="&lt;font style=&quot;font-size: 24px;&quot;&gt;end&lt;/font&gt;" style="strokeWidth=2;html=1;shape=mxgraph.flowchart.start_1;whiteSpace=wrap;" vertex="1" parent="1">
          <mxGeometry x="375" y="620" width="100" height="60" as="geometry" />
        </mxCell>
        <mxCell id="GR2DG_vjGnoU9E7qpDiR-10" style="edgeStyle=orthogonalEdgeStyle;rounded=0;orthogonalLoop=1;jettySize=auto;html=1;entryX=0.5;entryY=0;entryDx=0;entryDy=0;" edge="1" parent="1" source="GR2DG_vjGnoU9E7qpDiR-4" target="GR2DG_vjGnoU9E7qpDiR-7">
          <mxGeometry relative="1" as="geometry" />
        </mxCell>
        <mxCell id="GR2DG_vjGnoU9E7qpDiR-4" value="input firstname" style="shape=parallelogram;perimeter=parallelogramPerimeter;whiteSpace=wrap;html=1;fixedSize=1;" vertex="1" parent="1">
          <mxGeometry x="288" y="220" width="275" height="50" as="geometry" />
        </mxCell>
        <mxCell id="GR2DG_vjGnoU9E7qpDiR-14" style="edgeStyle=orthogonalEdgeStyle;rounded=0;orthogonalLoop=1;jettySize=auto;html=1;entryX=0.5;entryY=0;entryDx=0;entryDy=0;" edge="1" parent="1" source="GR2DG_vjGnoU9E7qpDiR-5" target="GR2DG_vjGnoU9E7qpDiR-13">
          <mxGeometry relative="1" as="geometry" />
        </mxCell>
        <mxCell id="GR2DG_vjGnoU9E7qpDiR-5" value="input lastname" style="shape=parallelogram;perimeter=parallelogramPerimeter;whiteSpace=wrap;html=1;fixedSize=1;" vertex="1" parent="1">
          <mxGeometry x="288" y="430" width="275" height="50" as="geometry" />
        </mxCell>
        <mxCell id="GR2DG_vjGnoU9E7qpDiR-9" style="edgeStyle=orthogonalEdgeStyle;rounded=0;orthogonalLoop=1;jettySize=auto;html=1;entryX=0.5;entryY=0;entryDx=0;entryDy=0;" edge="1" parent="1" source="GR2DG_vjGnoU9E7qpDiR-6" target="GR2DG_vjGnoU9E7qpDiR-4">
          <mxGeometry relative="1" as="geometry" />
        </mxCell>
        <mxCell id="GR2DG_vjGnoU9E7qpDiR-6" value="output&lt;br&gt;&quot;First Name:&amp;nbsp; &quot;" style="shape=parallelogram;perimeter=parallelogramPerimeter;whiteSpace=wrap;html=1;fixedSize=1;" vertex="1" parent="1">
          <mxGeometry x="288" y="120" width="275" height="50" as="geometry" />
        </mxCell>
        <mxCell id="GR2DG_vjGnoU9E7qpDiR-11" style="edgeStyle=orthogonalEdgeStyle;rounded=0;orthogonalLoop=1;jettySize=auto;html=1;entryX=0.5;entryY=0;entryDx=0;entryDy=0;" edge="1" parent="1" source="GR2DG_vjGnoU9E7qpDiR-7" target="GR2DG_vjGnoU9E7qpDiR-5">
          <mxGeometry relative="1" as="geometry" />
        </mxCell>
        <mxCell id="GR2DG_vjGnoU9E7qpDiR-7" value="output&lt;br&gt;&quot;Last Name: &quot;" style="shape=parallelogram;perimeter=parallelogramPerimeter;whiteSpace=wrap;html=1;fixedSize=1;" vertex="1" parent="1">
          <mxGeometry x="288" y="330" width="275" height="50" as="geometry" />
        </mxCell>
        <mxCell id="GR2DG_vjGnoU9E7qpDiR-13" value="output firstname, lastname, &quot; TC, RMUTL, Chiang Mai, Thailand&quot;" style="shape=parallelogram;perimeter=parallelogramPerimeter;whiteSpace=wrap;html=1;fixedSize=1;" vertex="1" parent="1">
          <mxGeometry x="288" y="525" width="275" height="50" as="geometry" />
        </mxCell>
        <mxCell id="GR2DG_vjGnoU9E7qpDiR-15" style="edgeStyle=orthogonalEdgeStyle;rounded=0;orthogonalLoop=1;jettySize=auto;html=1;entryX=0.5;entryY=0;entryDx=0;entryDy=0;entryPerimeter=0;" edge="1" parent="1" source="GR2DG_vjGnoU9E7qpDiR-13" target="GR2DG_vjGnoU9E7qpDiR-2">
          <mxGeometry relative="1" as="geometry" />
        </mxCell>
      </root>
    </mxGraphModel>
  </diagram>
</mxfile>
